<svg xmlns="http://www.w3.org/2000/svg" width="23.288" height="22.004" viewBox="0 0 23.288 22.004">
  <path id="Path_5256" data-name="Path 5256" d="M375.923,311.818H364.287a10.012,10.012,0,0,1,.245,1.51,2.721,2.721,0,0,1-2.045,2.526,2.767,2.767,0,0,1-2.98-1.243,2.726,2.726,0,0,1,2.3-4.124.3.3,0,0,0,.321-.217c.327-.852.67-1.7.994-2.55a.959.959,0,0,0,.032-.424q-.291-2.818-.593-5.634-.322-3.049-.643-6.1a2.476,2.476,0,0,0-.057-.259H357.73v-1.352c.087-.007.185-.021.284-.021q2.134,0,4.268,0c.623,0,.837.2.9.818.058.578.129,1.155.183,1.734.016.173.09.239.258.225.093-.008.187,0,.28,0h16.045a3.205,3.205,0,0,1,.434.026.639.639,0,0,1,.62.712c0,1.018,0,2.036,0,3.054q0,1.807,0,3.615c0,.535-.153.727-.677.837q-3.606.755-7.214,1.506-4.231.883-8.462,1.762a.513.513,0,0,0-.435.368c-.21.582-.453,1.152-.7,1.775.186.009.325.023.464.023q6.59,0,13.179.005c.154,0,.349-.094.459.137.018.037.21,0,.32-.016a2.612,2.612,0,0,1,2.527,1.093,2.519,2.519,0,0,1,.362,2.561,2.722,2.722,0,0,1-3.376,1.635,2.754,2.754,0,0,1-1.786-3.308A6.683,6.683,0,0,1,375.923,311.818Zm-11.438-4.96c.118-.011.192-.01.262-.025q7.307-1.515,14.616-3.025c.247-.051.286-.157.285-.373-.007-1.672,0-3.345,0-5.017v-.3h-16.1Zm-4.06,6.356a1.385,1.385,0,0,0,1.394,1.409,1.409,1.409,0,1,0-1.394-1.409Zm16.454,0a1.386,1.386,0,0,0,1.4,1.407,1.409,1.409,0,1,0-1.4-1.407Z" transform="translate(-357.73 -293.93)"/>
</svg>
