<svg xmlns="http://www.w3.org/2000/svg" xmlns:xlink="http://www.w3.org/1999/xlink" width="235.943" height="258.929" viewBox="0 0 235.943 258.929">
  <defs>
    <linearGradient id="linear-gradient" x1="0.068" y1="0.106" x2="0.916" y2="0.88" gradientUnits="objectBoundingBox">
      <stop offset="0" stop-color="#3a9bd5"/>
      <stop offset="0.305" stop-color="#3a9bd5"/>
      <stop offset="0.356" stop-color="#3a9bd5"/>
      <stop offset="0.599" stop-color="#3999d3"/>
      <stop offset="0.688" stop-color="#3592cf"/>
      <stop offset="0.752" stop-color="#2f86c7"/>
      <stop offset="0.804" stop-color="#2675bb"/>
      <stop offset="0.81" stop-color="#2573ba"/>
    </linearGradient>
    <linearGradient id="linear-gradient-2" x1="6.44" y1="-1.815" x2="6.999" y2="-1.305" gradientUnits="objectBoundingBox">
      <stop offset="0" stop-color="#59bdef"/>
      <stop offset="1" stop-color="#7bdaff"/>
    </linearGradient>
    <linearGradient id="linear-gradient-3" x1="-0.397" y1="6.337" x2="-2.263" y2="6.151" xlink:href="#linear-gradient-2"/>
    <linearGradient id="linear-gradient-4" x1="-11.939" y1="0.82" x2="-10.511" y2="1.179" gradientUnits="objectBoundingBox">
      <stop offset="0" stop-color="#2573ba"/>
      <stop offset="0.907" stop-color="#0364ae"/>
      <stop offset="1" stop-color="#0063ad"/>
    </linearGradient>
    <linearGradient id="linear-gradient-5" x1="-32.724" y1="0.5" x2="-31.724" y2="0.5" gradientUnits="objectBoundingBox">
      <stop offset="0" stop-color="#0063ad"/>
      <stop offset="1" stop-color="#2573ba"/>
    </linearGradient>
    <linearGradient id="linear-gradient-6" x1="-12.368" y1="0.896" x2="-11.214" y2="0.896" gradientUnits="objectBoundingBox">
      <stop offset="0" stop-color="#7bdaff"/>
      <stop offset="1" stop-color="#59bdef"/>
    </linearGradient>
  </defs>
  <g id="Group_4409" data-name="Group 4409" transform="translate(-952.332 -877.071)">
    <g id="Group_4287" data-name="Group 4287" transform="translate(432.412 798.082)">
      <path id="Path_5332" data-name="Path 5332" d="M753.3,296.429l-69.276,40.012c-3.094,1.786-7.775,1.98-10.455.433L521.729,249.208c-2.68-1.547-2.344-4.25.751-6.037l69.275-40.012c3.094-1.786,7.775-1.98,10.455-.433l151.843,87.666C756.733,291.94,756.4,294.642,753.3,296.429Z" fill="#13247a" opacity="0.5"/>
      <path id="Path_5333" data-name="Path 5333" d="M755.862,271.308l-14.272-2.484L602.21,188.352c-2.68-1.547-7.361-1.353-10.455.434l-64.566,37.293-7.268-1.265V232.2h.007a3.09,3.09,0,0,0,1.8,2.636L673.572,322.5c2.68,1.547,7.361,1.353,10.455-.433L753.3,282.055c1.718-.992,2.582-2.266,2.555-3.468h0Z" fill="url(#linear-gradient)"/>
      <path id="Path_5334" data-name="Path 5334" d="M753.3,274.721l-69.276,40.012c-3.094,1.787-7.775,1.981-10.455.433L521.729,227.5c-2.68-1.547-2.344-4.25.751-6.037l69.275-40.012c3.094-1.786,7.775-1.98,10.455-.433l151.843,87.667C756.733,270.232,756.4,272.934,753.3,274.721Z" fill="url(#linear-gradient-2)"/>
      <path id="Path_5335" data-name="Path 5335" d="M753.3,273.777l-69.276,40.012c-3.094,1.786-7.775,1.98-10.455.433L521.729,226.556a3.343,3.343,0,0,1-1.759-2.138,2.945,2.945,0,0,0,1.759,3.082l151.843,87.666c2.68,1.548,7.361,1.354,10.455-.433L753.3,274.721c1.925-1.112,2.781-2.577,2.509-3.9A4.687,4.687,0,0,1,753.3,273.777Z" fill="#fff"/>
      <path id="Path_5336" data-name="Path 5336" d="M753.407,268.311l-80.481,46.482-150.55-86.92,80.481-46.482Z" fill="#0f65b2"/>
      <path id="Path_5337" data-name="Path 5337" d="M567.5,199.587l-10.69,6.172a1.745,1.745,0,0,1-1.569.065l-.108-.063c-.4-.232-.352-.637.112-.9l10.691-6.172a1.74,1.74,0,0,1,1.568-.065l.109.062C568.015,198.913,567.964,199.319,567.5,199.587Z" fill="#0063ad"/>
      <g id="Group_4286" data-name="Group 4286">
        <path id="Path_5338" data-name="Path 5338" d="M541.981,228.63l-1.35.779-3.2-1.846,1.35-.779Z" fill="#fff"/>
        <path id="Path_5339" data-name="Path 5339" d="M544.467,227.195l-1.35.779-3.2-1.846,1.35-.779Z" fill="#fff"/>
        <path id="Path_5340" data-name="Path 5340" d="M546.954,225.759l-1.35.779-3.2-1.846,1.35-.779Z" fill="#fff"/>
        <path id="Path_5341" data-name="Path 5341" d="M549.44,224.324l-1.35.779-3.2-1.846,1.35-.779Z" fill="#fff"/>
      </g>
    </g>
    <ellipse id="Ellipse_60" data-name="Ellipse 60" cx="26.905" cy="15.534" rx="26.905" ry="15.534" transform="translate(1027.173 1020.172)" fill="#041860" opacity="0.6"/>
    <path id="Path_5346" data-name="Path 5346" d="M621.666,261.93c-10.694,0-21.387-2.351-29.529-7.051-7.955-4.593-12.337-10.721-12.337-17.256s4.381-12.663,12.336-17.255c16.283-9.4,42.775-9.4,59.058,0,7.955,4.593,12.337,10.721,12.337,17.256s-4.381,12.662-12.336,17.255C643.053,259.579,632.36,261.93,621.666,261.93Zm0-47.9c-10.565,0-21.128,2.322-29.17,6.965-7.724,4.458-11.978,10.366-11.978,16.633s4.254,12.175,11.979,16.635c16.085,9.285,42.255,9.285,58.338,0,7.724-4.46,11.978-10.367,11.978-16.634s-4.254-12.175-11.978-16.634C642.793,216.347,632.229,214.025,621.666,214.025Z" transform="translate(432.412 798.082)" fill="#fff"/>
    <g id="Group_4291" data-name="Group 4291" transform="translate(432.412 798.082)">
      <path id="Path_5347" data-name="Path 5347" d="M730.49,146.083,615.026,79.419a2.3,2.3,0,0,0-2.352-.186v-.006l-1.716,1s.4.057.795.112a4.58,4.58,0,0,0-.327,1.8V161.7c0,2.651,1.612,5.73,3.6,6.878L730.49,235.236a3.492,3.492,0,0,0,.638.289v.9l1.725-1.005h-.01a3.183,3.183,0,0,0,1.247-2.908V152.961C734.09,150.31,732.478,147.231,730.49,146.083Z" fill="#fff"/>
      <path id="Path_5348" data-name="Path 5348" d="M728.817,236.212,613.353,169.549c-1.988-1.148-3.6-4.227-3.6-6.878V83.117c0-2.651,1.612-3.869,3.6-2.722l115.464,66.664c1.988,1.148,3.6,4.227,3.6,6.878v79.554C732.417,236.142,730.8,237.36,728.817,236.212Z" fill="url(#linear-gradient-3)"/>
      <g id="Group_4289" data-name="Group 4289">
        <path id="Path_5349" data-name="Path 5349" d="M694.386,151.189V139.833l2.408,1.391a7.828,7.828,0,0,1,1.189.826,5.427,5.427,0,0,1,.9.986,4.115,4.115,0,0,1,.6,1.246,5.214,5.214,0,0,1,.2,1.5q-.006,2.1-1.448,1.514a4.455,4.455,0,0,1,1.3,1.633,5.229,5.229,0,0,1,.435,2.186q.006,1.62-.7,2.051t-2.058-.349Zm1.791-5.692.558.323q.789.453,1.086.236c.2-.147.3-.527.3-1.145a3.128,3.128,0,0,0-.1-.834,1.726,1.726,0,0,0-.329-.638,2.848,2.848,0,0,0-.513-.494,7.932,7.932,0,0,0-.751-.483l-.249-.142Zm0,5.267.658.38c.535.308.9.379,1.11.209s.308-.584.308-1.246a3.638,3.638,0,0,0-.346-1.691,2.9,2.9,0,0,0-1.166-1.134l-.564-.326Z" fill="#fff"/>
        <path id="Path_5350" data-name="Path 5350" d="M700.608,154.78l2-10.2,1.868,1.079,1.993,12.506L704.8,157.2l-.4-2.867-1.7-.982-.4,2.4Zm2.284-2.667,1.317.76-.659-5.044Z" fill="#fff"/>
        <path id="Path_5351" data-name="Path 5351" d="M707.436,158.723V147.367l1.233.712,2.409,7.823V149.47l1.482.855v11.356L711.386,161l-2.432-8.164v6.76Z" fill="#fff"/>
        <path id="Path_5352" data-name="Path 5352" d="M714.032,162.53V151.175l1.791,1.035v4.931l1.933-3.816,1.708.987-1.879,4,2.076,7.471-1.786-1.031-1.7-6.32-.356.533v4.6Z" fill="#fff"/>
      </g>
      <g id="Group_4290" data-name="Group 4290">
        <path id="Path_5353" data-name="Path 5353" d="M641.632,169.377l-21.918-12.654v-2.929l21.918,12.655Z" fill="#fff"/>
        <path id="Path_5354" data-name="Path 5354" d="M668.573,184.931l-21.918-12.655v-2.929L668.573,182Z" fill="#fff"/>
        <path id="Path_5355" data-name="Path 5355" d="M695.515,200.486,673.6,187.831V184.9l21.918,12.654Z" fill="#fff"/>
        <path id="Path_5356" data-name="Path 5356" d="M722.456,216.04l-21.918-12.654v-2.929l21.918,12.655Z" fill="#fff"/>
      </g>
    </g>
    <path id="Path_5357" data-name="Path 5357" d="M635.722,111.7l-25.969-2.1v53.076c0,2.651,1.612,5.73,3.6,6.879L663.317,198.4c12.913-18.3,9.995-46.336,9.995-46.336Z" transform="translate(432.412 798.082)" fill="#041860" opacity="0.2"/>
    <g id="Group_4293" data-name="Group 4293" transform="translate(432.412 798.082)">
      <g id="Group_4292" data-name="Group 4292">
        <path id="Path_5358" data-name="Path 5358" d="M664.429,158.253l-37.59-40.364-37.59-3.041s-6.041,50.957,37.59,105C670.47,216.186,664.429,158.253,664.429,158.253Z" fill="url(#linear-gradient-4)"/>
        <path id="Path_5359" data-name="Path 5359" d="M589.249,114.848l-8.458,4.883,37.59,3.041,8.458-4.883Z" fill="url(#linear-gradient-5)"/>
        <path id="Path_5360" data-name="Path 5360" d="M655.971,163.136l-37.589-40.364-15.457-1.562-22.133-1.479s-6.042,50.957,37.59,105C662.013,221.069,655.971,163.136,655.971,163.136Z" fill="url(#linear-gradient-6)"/>
        <path id="Path_5361" data-name="Path 5361" d="M655.971,163.136l-37.59-40.364-37.589-3.041,1.062-.614,38.09,3.082,37.59,40.364s5.043,48.429-27.449,59.527C660.851,210,655.971,163.136,655.971,163.136Z" fill="#fff"/>
      </g>
      <path id="Path_5362" data-name="Path 5362" d="M651.408,163.762l-33.8-36.29-13.9-1.4-19.9-1.33s-5.432,45.816,33.8,94.41C656.84,215.85,651.408,163.762,651.408,163.762Z" fill="#fff" opacity="0.2"/>
    </g>
    <g id="Group_4296" data-name="Group 4296" transform="translate(432.412 798.082)">
      <path id="Path_5365" data-name="Path 5365" d="M678.179,290.014a.526.526,0,0,1-.041-1.05,54.143,54.143,0,0,0,22.35-6.779c7.037-4.063,11.251-8.107,12.525-12.022a.526.526,0,0,1,1,.326c-1.358,4.168-5.731,8.41-13,12.606a55.21,55.21,0,0,1-22.793,6.917Z" fill="#fff"/>
      <path id="Path_5366" data-name="Path 5366" d="M713.93,268.029a.525.525,0,0,1-.525-.506c-.112-3.116-2.381-6.038-6.559-8.45-9.239-5.335-21.288-5.306-33.928.08a.526.526,0,0,1-.412-.968c12.951-5.517,25.333-5.525,34.865-.022,4.509,2.6,6.958,5.826,7.084,9.322a.525.525,0,0,1-.506.544Z" fill="#fff"/>
      <path id="Path_5367" data-name="Path 5367" d="M670.17,289.99a.422.422,0,0,1-.05,0,27.943,27.943,0,0,1-11.239-3.222c-3.257-1.881-5.287-4.423-5.869-7.353a1.356,1.356,0,0,1,.336-1.166,3.223,3.223,0,0,1,2.575-.873,2.506,2.506,0,0,1,2.418,1.408,8.875,8.875,0,0,0,4.442,5.124c8.206,4.737,24.006,3.322,35.223-3.154,7.238-4.179,11.065-8.439,11.065-12.319,0-2.731-1.938-5.294-5.6-7.41-9.455-5.459-22.294-4.31-35.222,3.153-4.665,2.693-8.01,5.992-9.418,9.29a2.43,2.43,0,0,1-2.252,1.168,2.75,2.75,0,0,1-2.373-.974,1.191,1.191,0,0,1-.072-1.2c1.9-3.859,5.745-7.535,11.107-10.631a.526.526,0,1,1,.526.91c-5.182,2.991-8.878,6.514-10.691,10.186a.141.141,0,0,0,.015.163,1.817,1.817,0,0,0,1.459.49,1.538,1.538,0,0,0,1.315-.53c1.5-3.506,5-6.981,9.858-9.787,13.262-7.657,26.484-8.806,36.274-3.153,4.009,2.315,6.128,5.192,6.128,8.32,0,4.338-3.9,8.789-11.59,13.229-11.507,6.644-27.78,8.058-36.274,3.154a10.013,10.013,0,0,1-4.928-5.746c-.079-.277-.661-.6-1.464-.646a2.239,2.239,0,0,0-1.724.512c-.125.143-.106.237-.1.272.521,2.625,2.376,4.923,5.363,6.648a26.915,26.915,0,0,0,10.812,3.086.525.525,0,0,1-.048,1.048Z" fill="#fff"/>
      <path id="Path_5368" data-name="Path 5368" d="M683.405,284.566a2.887,2.887,0,0,1-2.1-.774,1.243,1.243,0,0,1-.3-1.242,2.025,2.025,0,0,1,1.62-1.181,33.522,33.522,0,0,0,9.99-3.725c4.858-2.8,7.609-5.607,7.957-8.1a4.042,4.042,0,0,0-1.285-3.461,1.318,1.318,0,0,1-.383-1.245,1.961,1.961,0,0,1,1.365-1.284,3.649,3.649,0,0,1,3.623.616,6.375,6.375,0,0,1,1.952,4.979c-.2,2.6-2.081,5.281-5.583,7.984a.525.525,0,0,1-.642-.832c3.257-2.513,5-4.947,5.177-7.234a5.37,5.37,0,0,0-1.668-4.175,2.7,2.7,0,0,0-2.509-.347c-.456.161-.658.388-.692.533-.007.031-.029.126.114.273a5.041,5.041,0,0,1,1.572,4.338c-.4,2.869-3.25,5.853-8.473,8.869a34.632,34.632,0,0,1-10.3,3.845c-.5.1-.779.319-.832.479-.009.027-.029.091.077.209a2.149,2.149,0,0,0,1.853.371,39.536,39.536,0,0,0,11.331-4.285.526.526,0,1,1,.526.91,40.589,40.589,0,0,1-11.635,4.4A3.67,3.67,0,0,1,683.405,284.566Z" fill="#fff"/>
      <path id="Path_5369" data-name="Path 5369" d="M675.082,285.378h-.124a20.77,20.77,0,0,1-9.626-2.336c-2.756-1.591-4.213-3.819-4.213-6.445,0-3.984,3.49-8.378,9.334-11.752,9.26-5.346,18.512-7.064,26.052-4.838a2.1,2.1,0,0,1,1.539,1.284,1.317,1.317,0,0,1-.31,1.263h0a3.59,3.59,0,0,1-3.5.707c-5.387-1.616-12.188-.473-19.15,3.218-.261.139-.356.285-.357.367s.117.227.3.334a2.516,2.516,0,0,0,2.156.028c6.924-3.66,13.375-4.327,17.7-1.832,1.742,1.006,2.663,2.322,2.663,3.808,0,2.441-2.4,5.063-7.125,7.793-6.48,3.74-15.022,4.9-19.042,2.576a4.142,4.142,0,0,1-2.2-2.953c-.242-1.6.5-3.384,2.158-5.175.1-.1.083-.161.079-.18-.024-.107-.182-.272-.482-.4a2.344,2.344,0,0,0-2.248.253c-1.824,1.975-2.682,4.024-2.417,5.77a4.9,4.9,0,0,0,2.679,3.477,14.416,14.416,0,0,0,6.29,1.618c1.342.076,2.31.744,2.352,1.625a1.343,1.343,0,0,1-.411,1.043A2.952,2.952,0,0,1,675.082,285.378Zm14.582-25.271c-5.8,0-12.229,1.92-18.685,5.647-5.516,3.184-8.809,7.238-8.809,10.842,0,2.229,1.275,4.143,3.687,5.535a19.745,19.745,0,0,0,9.134,2.195,1.994,1.994,0,0,0,1.433-.428.324.324,0,0,0,.113-.216c-.013-.269-.537-.619-1.364-.666a15.451,15.451,0,0,1-6.755-1.757,5.974,5.974,0,0,1-3.193-4.229c-.314-2.068.639-4.427,2.684-6.641a3.322,3.322,0,0,1,3.422-.51,1.7,1.7,0,0,1,1.106,1.141,1.23,1.23,0,0,1-.332,1.118c-1.41,1.526-2.082,3.054-1.892,4.3a3.1,3.1,0,0,0,1.686,2.2c3.73,2.153,11.8,1,17.992-2.576,4.255-2.457,6.6-4.9,6.6-6.883,0-1.1-.719-2.079-2.138-2.9-4-2.311-10.083-1.637-16.681,1.851a3.544,3.544,0,0,1-3.172-.047,1.464,1.464,0,0,1-.827-1.262,1.527,1.527,0,0,1,.916-1.277c7.207-3.822,14.289-4.994,19.944-3.3a2.6,2.6,0,0,0,2.409-.39h0c.132-.151.1-.245.094-.279-.052-.178-.328-.423-.827-.57A23.047,23.047,0,0,0,689.664,260.107Zm7.673,2.1h0Z" fill="#fff"/>
      <path id="Path_5370" data-name="Path 5370" d="M677.579,278.43a6.3,6.3,0,0,1-3.11-.664,2.349,2.349,0,0,1-1.287-2.094c0-1.879,2.024-4.169,5.414-6.127,5.5-3.176,10.307-4.044,13.187-2.382a2.643,2.643,0,0,1,1.534,2.235c.041,1.533-1.387,3.255-4.245,5.118a3.5,3.5,0,0,1-3.341.059,1.484,1.484,0,0,1-.826-1.211,1.4,1.4,0,0,1,.719-1.2c2.294-1.489,2.292-2.1,2.292-2.1-.64-.371-2.574-.055-6.075,1.967-2.429,1.4-3.433,2.6-3.43,2.936a.524.524,0,0,1-.522.528h0a.525.525,0,0,1-.525-.522c-.011-1.449,3.025-3.315,3.955-3.852,2.4-1.388,5.583-2.864,7.079-2a1.065,1.065,0,0,1,.572.908c.013.515-.259,1.388-2.77,3.017-.151.1-.243.21-.241.293s.082.2.3.328a2.467,2.467,0,0,0,2.241-.029c3.319-2.164,3.785-3.566,3.768-4.21a1.676,1.676,0,0,0-1.009-1.353c-1.2-.7-4.8-1.854-12.135,2.382-2.97,1.715-4.889,3.763-4.889,5.217a1.318,1.318,0,0,0,.762,1.184c1.277.736,3.785.7,6.71-.111a.525.525,0,1,1,.28,1.013A16.947,16.947,0,0,1,677.579,278.43Z" fill="#fff"/>
    </g>
    <path id="Path_5371" data-name="Path 5371" d="M668.876,260.353a.335.335,0,0,1-.167-.045l-13.844-7.992a.334.334,0,1,1,.334-.578l13.844,7.992a.334.334,0,0,1-.167.623Z" transform="translate(432.412 798.082)" fill="#fff"/>
  </g>
</svg>
