<svg xmlns="http://www.w3.org/2000/svg" width="137.55" height="69.842" viewBox="0 0 137.55 69.842">
  <g id="Group_4279" data-name="Group 4279" transform="translate(697.291 -79.694)">
    <path id="Path_5327" data-name="Path 5327" d="M-593.711,121.972c-.281.041-.77.135-.816.041-.28-.589-.778-.349-1.17-.349q-16.8-.013-33.6-.013c-.354,0-.709-.036-1.183-.059.63-1.588,1.249-3.042,1.785-4.526a1.308,1.308,0,0,1,1.109-.938q10.788-2.241,21.576-4.493,9.2-1.915,18.394-3.84c1.336-.281,1.726-.77,1.726-2.134q0-4.61,0-9.217V88.657q.009-.074.01-.149a1.629,1.629,0,0,0-1.591-1.667,8.128,8.128,0,0,0-1.107-.066h-40.911c-.237,0-.477-.02-.714,0-.429.036-.617-.133-.658-.574-.138-1.476-.319-2.948-.467-4.422-.16-1.576-.706-2.086-2.295-2.086h-10.883c-.253,0-.5.036-.724.054v3.447H-634.7a6.351,6.351,0,0,1,.145.66q.819,7.779,1.64,15.554.77,7.18,1.512,14.366a2.443,2.443,0,0,1-.082,1.081c-.826,2.167-1.7,4.33-2.534,6.5a.765.765,0,0,1-.818.553,6.953,6.953,0,0,0-3.463.983,6.951,6.951,0,0,0-2.4,9.532,7.055,7.055,0,0,0,7.6,3.169,6.938,6.938,0,0,0,5.215-6.441,25.541,25.541,0,0,0-.625-3.85h29.67a17.057,17.057,0,0,0-.663,1.719,7.022,7.022,0,0,0,4.554,8.435,6.94,6.94,0,0,0,8.608-4.169,6.423,6.423,0,0,0-.923-6.53A6.66,6.66,0,0,0-593.711,121.972Zm4.365-31.6v.765c0,4.263-.018,8.529,0,12.793,0,.551-.1.821-.727.951q-18.636,3.85-37.268,7.713c-.178.038-.367.036-.668.064L-630.4,90.373Zm-45.46,42.084h-.085a3.531,3.531,0,0,1-3.47-3.592c0-.013,0-.025,0-.038a3.592,3.592,0,0,1,3.631-3.554,3.593,3.593,0,0,1,3.554,3.631A3.593,3.593,0,0,1-634.806,132.457Zm41.97-.005h-.09a3.534,3.534,0,0,1-3.48-3.587v-.028a3.593,3.593,0,0,1,3.616-3.57,3.593,3.593,0,0,1,3.57,3.616A3.592,3.592,0,0,1-592.836,132.452Z" transform="translate(-39.808)" fill="#fff"/>
    <path id="Path_5328" data-name="Path 5328" d="M-293.618,242.624h-.066a9.272,9.272,0,0,0-6.558,2.713,9.3,9.3,0,0,0-2.789,6.618,9.26,9.26,0,0,0,2.73,6.6,9.265,9.265,0,0,0,6.587,2.767h.019a9.358,9.358,0,0,0,9.361-9.3A9.376,9.376,0,0,0-293.618,242.624ZM-293.7,258.5h-.013a6.459,6.459,0,0,1-4.59-1.934,6.455,6.455,0,0,1-1.908-4.6,6.5,6.5,0,0,1,1.951-4.62,6.466,6.466,0,0,1,4.572-1.9h.046a6.546,6.546,0,0,1,6.479,6.563A6.529,6.529,0,0,1-293.7,258.5Z" transform="translate(-301.481 -124.588)" fill="#fff"/>
    <path id="Path_5329" data-name="Path 5329" d="M-315.344,205.288c-.917-.129-1.789-.252-2.659-.4-.192-.44-.374-.886-.565-1.354s-.387-.947-.6-1.426c.542-.705,1.069-1.416,1.581-2.106q.323-.435.64-.862l.733-.982-6.8-6.756-.977.731q-.422.316-.856.638c-.682.508-1.385,1.03-2.084,1.568-.943-.426-1.88-.815-2.792-1.157-.067-.529-.146-1.054-.223-1.563-.085-.559-.165-1.088-.23-1.623a1.886,1.886,0,0,0-1.989-1.791h-.025c-1.933.017-3.962.017-6.03,0a1.883,1.883,0,0,0-2.023,1.781c-.069.579-.159,1.175-.245,1.752-.071.473-.144.96-.208,1.45-.922.349-1.867.713-2.8,1.149-.71-.548-1.423-1.077-2.115-1.59q-.429-.318-.843-.627l-.974-.728-6.8,6.733.736.984q.327.437.655.88c.511.688,1.037,1.4,1.585,2.108-.424.913-.816,1.853-1.166,2.8-.879.108-1.755.243-2.6.374-.373.057-.746.115-1.119.17l-1.2.179v9.528l1.207.177,1.078.156c.916.131,1.788.256,2.652.4.157.367.307.741.463,1.132.216.542.44,1.1.692,1.656-.546.7-1.068,1.4-1.575,2.085q-.323.436-.639.858l-.732.977,6.755,6.793.982-.735.866-.645c.689-.513,1.4-1.041,2.106-1.583.934.421,1.872.81,2.795,1.157.116.881.248,1.761.377,2.615q.084.556.166,1.11l.177,1.207h9.535l.177-1.207q.084-.572.169-1.135c.127-.845.258-1.715.372-2.587.892-.336,1.812-.717,2.8-1.159.7.538,1.4,1.061,2.087,1.57l.867.646.981.734,6.764-6.783-.731-.978c-.206-.276-.416-.559-.629-.846-.508-.685-1.031-1.391-1.577-2.1.365-.79.8-1.771,1.167-2.811.872-.11,1.745-.241,2.592-.366q.552-.082,1.106-.163l1.21-.175v-9.545l-1.21-.175Zm-.561,7.428c-.881.131-1.788.265-2.675.374a2.269,2.269,0,0,0-2.01,1.654,31.219,31.219,0,0,1-1.249,3,2.155,2.155,0,0,0,.244,2.391c.565.726,1.118,1.469,1.654,2.191l-3.314,3.323c-.735-.547-1.492-1.111-2.227-1.682a2.111,2.111,0,0,0-2.316-.241c-1.135.517-2.173.946-3.171,1.313a2.136,2.136,0,0,0-1.506,1.866c-.115.921-.251,1.828-.4,2.786h-4.661c-.139-.919-.281-1.867-.4-2.8a2.138,2.138,0,0,0-1.512-1.86c-1.042-.385-2.108-.826-3.167-1.313a2.109,2.109,0,0,0-2.316.251c-.739.572-1.5,1.139-2.237,1.688l-3.308-3.327c.526-.708,1.068-1.437,1.624-2.14a2.249,2.249,0,0,0,.247-2.521c-.255-.544-.479-1.105-.716-1.7-.193-.481-.392-.98-.611-1.474a2.341,2.341,0,0,0-1.633-1.331c-.98-.172-1.942-.312-2.955-.456v-4.654c.9-.138,1.819-.28,2.719-.384a2.244,2.244,0,0,0,1.964-1.6c.371-1.022.794-2.036,1.258-3.014a2.206,2.206,0,0,0-.261-2.456c-.56-.721-1.115-1.467-1.654-2.193l3.329-3.3c.707.524,1.434,1.065,2.144,1.617a2.22,2.22,0,0,0,2.521.266c.991-.478,2.058-.881,3.09-1.27a2.114,2.114,0,0,0,1.472-1.817c.069-.577.159-1.172.245-1.747.055-.367.111-.742.164-1.123,1.582.01,3.137.01,4.644,0,.048.34.1.677.149,1.007.094.62.183,1.206.251,1.8a2.2,2.2,0,0,0,1.565,1.91c1.007.371,2.05.8,3.1,1.288a2.1,2.1,0,0,0,2.32-.232c.736-.572,1.491-1.135,2.225-1.682l3.331,3.311c-.545.736-1.108,1.493-1.68,2.229a2.118,2.118,0,0,0-.252,2.311c.237.529.455,1.062.685,1.626s.461,1.129.715,1.7a2.376,2.376,0,0,0,1.654,1.318c.968.168,1.952.308,2.909.443Z" transform="translate(-259.954 -82.979)" fill="#fff"/>
    <path id="Path_5330" data-name="Path 5330" d="M-303.563,116.223l-2.662,2.884V107.868a22.185,22.185,0,0,0-22.159-22.16h-30.724V89h30.724a18.886,18.886,0,0,1,18.865,18.865v11.239l-2.662-2.884-2.421,2.235,6.73,7.292,6.731-7.292Z" transform="translate(-258.599 -4.599)" fill="#fff"/>
    <path id="Path_5331" data-name="Path 5331" d="M-688.913,224.165v-11.24l2.662,2.884,2.421-2.234-6.73-7.292-6.731,7.292,2.421,2.234,2.662-2.884v11.24a22.184,22.184,0,0,0,22.159,22.159h37.439V243.03h-37.439A18.886,18.886,0,0,1-688.913,224.165Z" transform="translate(0 -96.799)" fill="#fff"/>
  </g>
</svg>
