<svg xmlns="http://www.w3.org/2000/svg" width="72.912" height="86.996" viewBox="0 0 72.912 86.996">
  <g id="Group_4351" data-name="Group 4351" transform="translate(252.684 266.311)">
    <path id="Path_5475" data-name="Path 5475" d="M-216.961-179.315c-2.856-1.211-5.776-2.291-8.556-3.657-13.152-6.463-21.6-16.771-25.081-31.061a68.14,68.14,0,0,1-2.015-14.946c-.128-7.188-.047-14.381-.028-21.572,0-1.887,1.252-3.033,3.278-3.144,2.176-.118,4.36-.156,6.524-.385a39.848,39.848,0,0,0,23.257-10.287c.355-.324.7-.661,1.058-.983a3.106,3.106,0,0,1,4.489-.008c1.9,1.6,3.772,3.266,5.808,4.683a37.9,37.9,0,0,0,17.071,6.4c2.52.325,5.073.433,7.614.557,2.514.124,3.609,1.179,3.63,3.673.049,5.691.182,11.384.124,17.074a80.8,80.8,0,0,1-2.5,20.165c-3.616,13.511-11.8,23.3-24.235,29.559-2.942,1.48-6.05,2.627-9.083,3.928Zm-29.592-68.233c-.015.3-.037.583-.041.864-.047,3.652-.116,7.3-.13,10.956a85.649,85.649,0,0,0,1.888,19.9,38.7,38.7,0,0,0,11.656,20.46,49.562,49.562,0,0,0,16.543,9.622,1.257,1.257,0,0,0,.872-.052c3.172-1.48,6.445-2.79,9.473-4.527a37.342,37.342,0,0,0,15.169-15.94A51.938,51.938,0,0,0-186.1-227.5c.284-6.414.107-12.848.13-19.273,0-.274-.037-.549-.054-.806-2.2-.248-4.341-.443-6.466-.735a44.228,44.228,0,0,1-22.89-10.1,1.13,1.13,0,0,0-1.8,0,43.863,43.863,0,0,1-21.97,9.949C-241.579-248.1-244.026-247.858-246.553-247.549Z" fill="#fff"/>
    <path id="Path_5476" data-name="Path 5476" d="M-200.438-187.736c4.827-4.831,9.59-9.592,14.345-14.362a3.373,3.373,0,0,1,2.269-1.186,2.874,2.874,0,0,1,2.87,1.581,2.894,2.894,0,0,1-.257,3.268,7.431,7.431,0,0,1-.744.813q-7.922,7.928-15.848,15.85c-1.9,1.9-3.419,1.894-5.318,0q-3.9-3.9-7.806-7.8a3.009,3.009,0,0,1-.866-3.1,2.884,2.884,0,0,1,2.3-2.134,3.031,3.031,0,0,1,2.916.985q2.731,2.733,5.467,5.46C-200.91-188.174-200.7-187.987-200.438-187.736Z" transform="translate(-20.032 -30.972)" fill="#fff"/>
  </g>
</svg>
