<svg xmlns="http://www.w3.org/2000/svg" width="80.694" height="80.9" viewBox="0 0 80.694 80.9">
  <g id="Group_4395" data-name="Group 4395" transform="translate(719.21 374.9)">
    <g id="Group_4393" data-name="Group 4393" transform="translate(-719.21 -374.9)">
      <path id="Path_5646" data-name="Path 5646" d="M-693.036-294c-2.217,0-4.42-.074-6.6-.146-.883-.029-1.768-.059-2.65-.084a11.007,11.007,0,0,1-8.043-3.576,6.915,6.915,0,0,1-1.864-5.071,7.1,7.1,0,0,1,.981-3.185,7.321,7.321,0,0,1-5.836-5.812,6.859,6.859,0,0,1,1.928-6.472,6.617,6.617,0,0,1-3.991-4.687l-.039-.2a9.875,9.875,0,0,1,1.9-7.1,7.421,7.421,0,0,1,2.088-1.722,7.6,7.6,0,0,1-2.493-3.71c-.64-2.31.044-4.757,2.032-7.275h0c1.535-1.944,4.928-2.2,8.27-2.292l.29-.007c2.869-.086,5.934-.234,9.937-.483,1.147-.072,2.284-.211,3.489-.358l.8-.1c-.131-1.1-.317-2.2-.5-3.231-.112-.623-.249-1.244-.385-1.866a29.779,29.779,0,0,1-.646-3.695l-.1-1.034a48.235,48.235,0,0,1-.3-8.261c.337-4.34,2.23-7.631,5.475-9.517a6.738,6.738,0,0,1,5.828-.607,5.412,5.412,0,0,1,3.262,3.5,10.959,10.959,0,0,1,.268,3.936c-.026.449-.053.9-.05,1.337,0,.392-.007.784-.019,1.177-.007.3-.015.592-.017.888a3.523,3.523,0,0,1,.1.695c.1,2.768,1.243,5.224,2.933,8.059,2.911,4.888,6.979,9.325,12.8,13.963.327.262.662.516,1,.77a27.9,27.9,0,0,1,2.311,1.893,4.166,4.166,0,0,1,1.131,2.908c.028,4.883.026,9.766.024,14.65v4.028c0,.948-.013,1.9-.025,2.843-.03,2.158-.06,4.389.076,6.536a5.723,5.723,0,0,1-2.975,5.545A37.965,37.965,0,0,1-673.6-296.8c-1.416.361-2.852.668-4.24.964-.962.205-1.923.41-2.88.634A53.8,53.8,0,0,1-693.036-294Zm-9.433-15.539-4,3.723c-.242.228-.417.392-.6.549a3.8,3.8,0,0,0-1.4,2.609,3.169,3.169,0,0,0,.9,2.339,7.41,7.41,0,0,0,5.388,2.36c.89.025,1.78.055,2.671.084,5.944.2,12.089.4,17.941-.965.979-.229,1.964-.44,2.95-.65,1.353-.288,2.752-.587,4.1-.93a34.332,34.332,0,0,0,9.89-4.5c1.035-.659,1.316-1.143,1.252-2.16-.145-2.291-.114-4.595-.083-6.822.012-.931.025-1.862.025-2.793v-4.03c0-4.875,0-9.75-.024-14.626a1.078,1.078,0,0,0-.052-.3c-.58-.535-1.231-1.03-1.918-1.552-.357-.271-.714-.543-1.063-.822-6.185-4.928-10.533-9.686-13.682-14.972-1.7-2.861-3.3-6.023-3.452-9.762a3.443,3.443,0,0,1-.11-.8c0-.364.009-.728.019-1.09s.019-.705.017-1.059c0-.516.026-1.043.057-1.571a8.052,8.052,0,0,0-.105-2.61,1.726,1.726,0,0,0-1.05-1.131,3.1,3.1,0,0,0-2.6.355c-2.2,1.279-3.386,3.431-3.63,6.58a45.523,45.523,0,0,0,.295,7.623l.1,1.046a26.73,26.73,0,0,0,.576,3.233c.146.669.293,1.338.413,2.009.229,1.284.462,2.665.6,4.072a3.078,3.078,0,0,1-2.876,3.467l-1.251.15c-1.205.147-2.451.3-3.71.378-4.045.252-7.146.4-10.057.489l-.3.008c-3.953.111-5.145.537-5.448.877-1.209,1.531-1.668,2.865-1.364,3.963.441,1.591,2.474,2.868,4.228,3.532l1.432.541-.205,1.587a1.953,1.953,0,0,1-1.861,1.624,5.117,5.117,0,0,0-3.927,1.544,6,6,0,0,0-1.075,4.1c.481,1.706,1.76,2.4,4.812,2.653a1.952,1.952,0,0,1,1.756,1.572,1.958,1.958,0,0,1-1.054,2.118c-1.864.925-3.98,2.51-3.46,4.795.471,2.065,1.648,3.333,6.065,3.25Zm-8.484-7.93h0Zm-.648-3.371-.006,0Zm48.07-14.857Zm-20.1-27.135v0Z" transform="translate(719.21 374.9)" fill="#fff"/>
    </g>
    <g id="Group_4394" data-name="Group 4394" transform="translate(-655.822 -336.315)">
      <path id="Path_5647" data-name="Path 5647" d="M-642.652-297.406q-2.591,0-5.183-.006c-1.681,0-3.4-.39-3.4-3.229l0-8.862q0-10.458-.018-20.916a3.135,3.135,0,0,1,.823-2.291,3.288,3.288,0,0,1,2.456-.825c3.238.046,6.669.048,10.8,0a3.247,3.247,0,0,1,2.437.817,3.007,3.007,0,0,1,.793,2.217c-.037,3.731-.032,7.529-.027,11.2l0,7.489v11.168c0,2.668-1.338,3.217-3.345,3.222Q-639.986-297.406-642.652-297.406Zm-4.852-3.736q4.9.01,9.8,0v-14.383l0-3.762c0-3.442-.009-6.994.021-10.506-3.707.035-6.86.035-9.834,0q.025,10.148.016,20.294Z" transform="translate(651.255 333.535)" fill="#fff"/>
    </g>
  </g>
</svg>
